<?xml version="1.0" standalone="no"?>
<!DOCTYPE svg PUBLIC "-//W3C//DTD SVG 20010904//EN"
 "http://www.w3.org/TR/2001/REC-SVG-20010904/DTD/svg10.dtd">
<svg version="1.0" xmlns="http://www.w3.org/2000/svg"
 width="1024.000000pt" height="1024.000000pt" viewBox="0 0 1024.000000 1024.000000"
 preserveAspectRatio="xMidYMid meet">
<metadata>
Created by potrace 1.14, written by Peter Selinger 2001-2017
</metadata>
<g transform="translate(0.000000,1024.000000) scale(0.100000,-0.100000)"
fill="#000000" stroke="none">
<path d="M5121 8289 c1 -852 0 -941 -11 -934 -5 3 -10 2 -10 -4 0 -5 6 -11 13
-14 8 -3 6 -11 -9 -28 -12 -13 -32 -43 -44 -66 -13 -24 -27 -43 -32 -43 -4 0
-7 -3 -6 -7 5 -20 -15 -54 -28 -49 -8 3 -14 2 -15 -2 0 -4 -2 -16 -3 -27 -2
-21 -83 -165 -92 -165 -3 0 -2 5 2 12 4 7 3 8 -4 4 -6 -4 -8 -14 -5 -23 5 -12
3 -14 -7 -8 -9 5 -11 4 -6 -3 11 -18 -4 -37 -16 -21 -6 10 -7 7 -3 -8 7 -27
-19 -73 -29 -51 -3 7 -3 3 0 -9 3 -13 2 -23 -3 -23 -4 0 -17 -18 -27 -40 -16
-34 -21 -38 -34 -27 -13 10 -14 9 -5 -7 9 -16 6 -26 -11 -50 -11 -17 -23 -33
-26 -36 -3 -3 -16 -26 -29 -52 -14 -26 -30 -44 -35 -41 -6 4 -8 3 -4 -1 4 -5
-6 -31 -21 -60 -58 -106 -99 -167 -105 -157 -4 6 -2 21 4 33 10 21 10 21 -3 6
-8 -10 -18 -14 -22 -10 -4 4 -1 -6 8 -22 14 -28 13 -32 -7 -60 -11 -17 -24
-32 -28 -34 -5 -2 -8 -9 -8 -14 0 -6 -20 -43 -44 -82 -24 -39 -51 -87 -61
-106 -10 -19 -21 -37 -24 -40 -3 -3 -17 -25 -30 -50 -13 -25 -37 -64 -53 -88
-15 -24 -35 -57 -44 -74 -13 -24 -18 -28 -26 -17 -6 10 -7 7 -3 -10 5 -17 4
-22 -5 -16 -9 5 -11 4 -6 -4 4 -6 -1 -23 -11 -39 -10 -15 -25 -39 -32 -54 -8
-15 -18 -25 -23 -22 -5 3 -7 2 -6 -3 4 -14 -45 -102 -54 -97 -5 3 -6 15 -3 27
5 19 5 20 -5 5 -8 -13 -8 -24 0 -37 6 -12 6 -22 1 -26 -5 -3 -11 0 -14 7 -2 7
-3 4 -1 -8 2 -11 -5 -30 -15 -41 -10 -11 -22 -29 -25 -41 -4 -13 -12 -19 -18
-16 -7 4 -8 2 -4 -4 7 -12 -17 -56 -26 -47 -2 3 -5 -1 -5 -7 0 -25 -85 -148
-97 -141 -6 3 -8 3 -4 -1 8 -10 -11 -66 -23 -66 -5 0 -9 -7 -9 -16 0 -9 -5
-12 -12 -8 -6 4 -8 3 -5 -4 10 -15 -3 -43 -16 -35 -6 3 -7 1 -3 -5 4 -7 2 -17
-4 -24 -20 -25 -60 -89 -60 -98 0 -5 -4 -12 -10 -15 -6 -3 -7 1 -4 9 11 29
-11 16 -30 -16 -10 -18 -13 -27 -5 -20 28 26 29 10 2 -35 -31 -55 -43 -66 -58
-53 -14 12 -37 -3 -34 -21 2 -8 -7 -33 -19 -56 -24 -47 -27 -57 -12 -48 6 4
20 26 31 50 11 24 27 46 35 49 10 4 -82 -161 -104 -184 -4 -5 5 29 15 58 3 6
1 12 -4 12 -16 0 -43 -79 -31 -86 7 -5 8 -2 3 6 -6 9 -4 11 4 6 9 -6 8 -13 -5
-27 -21 -23 -25 -24 -17 -2 4 11 3 14 -6 9 -7 -5 -17 -19 -22 -33 -8 -21 -12
-23 -24 -13 -10 9 -15 9 -15 1 0 -6 5 -11 11 -11 6 0 9 -6 6 -12 -2 -7 -11
-12 -21 -10 -9 2 -16 -2 -16 -8 0 -5 3 -9 8 -9 4 1 15 1 24 0 15 -1 16 -5 6
-26 -6 -14 -14 -25 -18 -25 -4 0 -11 -10 -14 -22 -7 -21 -8 -21 -14 -5 -4 10
-12 18 -17 17 -22 -3 -15 29 7 32 13 2 -5 5 -39 5 -55 2 -63 -1 -63 -16 0 -22
-22 -43 -41 -38 -8 2 -11 2 -6 0 4 -3 7 -27 7 -54 l0 -49 -40 0 c-33 0 -40 -3
-40 -20 0 -11 -4 -20 -9 -20 -5 0 -11 -10 -13 -22 -2 -16 -11 -24 -29 -26 -21
-2 -26 -8 -27 -33 0 -16 4 -29 9 -29 5 0 9 5 9 11 0 6 7 17 15 26 12 12 19 13
30 3 8 -7 15 -18 14 -24 0 -7 -2 -6 -6 2 -7 17 -30 15 -37 -4 -9 -22 -8 -23
17 -18 l22 5 -22 -10 c-13 -6 -23 -17 -23 -26 0 -8 -7 -15 -16 -15 -11 0 -15
-6 -11 -20 3 -11 1 -20 -4 -20 -5 0 -9 9 -9 20 0 23 -25 27 -33 6 -3 -8 -3
-23 0 -34 2 -11 0 -23 -6 -27 -19 -11 -23 23 -7 56 9 18 16 38 16 46 0 7 7 13
15 13 8 0 15 -8 15 -17 0 -15 2 -15 9 -4 6 9 4 19 -5 28 -8 8 -12 18 -9 23 3
5 1 11 -3 14 -5 3 -14 -6 -20 -19 -7 -14 -18 -25 -27 -25 -8 0 -15 -8 -15 -19
0 -10 -7 -24 -15 -31 -8 -7 -15 -19 -15 -26 0 -8 -4 -14 -10 -14 -23 0 -148
-142 -141 -161 3 -11 1 -12 -10 -2 -12 10 -20 5 -44 -25 -17 -20 -29 -41 -27
-46 2 -5 -6 -6 -18 -3 -16 4 -20 0 -20 -19 0 -17 -7 -25 -25 -30 -26 -6 -35
-24 -12 -24 6 0 4 -5 -6 -11 -18 -11 -67 -57 -67 -64 0 -7 -52 -60 -58 -60
-10 0 -352 -342 -352 -352 0 -5 -16 -17 -35 -27 -19 -11 -35 -24 -35 -29 0 -6
-18 -27 -40 -48 -22 -21 -40 -46 -40 -56 0 -12 -3 -14 -8 -6 -5 8 -11 8 -24
-1 -10 -7 -16 -15 -13 -18 2 -2 -9 -12 -25 -22 -26 -15 -30 -15 -30 -2 0 9 -5
16 -11 16 -6 0 -8 -9 -4 -20 5 -16 0 -22 -22 -31 -15 -6 -35 -12 -42 -13 -8
-2 -17 -8 -19 -14 -3 -11 -32 -5 -32 7 0 4 13 14 29 24 24 14 398 385 862 855
56 56 105 102 111 102 5 0 7 4 4 8 -2 4 27 39 65 76 38 38 69 72 69 75 0 4 14
15 30 24 17 10 30 24 30 32 0 8 10 21 22 29 12 9 17 16 11 16 -7 0 -86 -75
-177 -166 -106 -106 -169 -163 -177 -158 -8 4 -9 3 -5 -4 10 -16 -785 -808
-797 -795 -4 3 -11 -6 -16 -20 -12 -32 -31 -44 -32 -20 0 10 -5 3 -10 -15 -6
-18 -16 -35 -24 -39 -8 -3 -15 -11 -15 -19 0 -7 -6 -11 -14 -8 -8 3 -17 1 -21
-5 -3 -6 2 -11 12 -11 15 0 14 -3 -7 -19 -13 -11 -27 -18 -30 -16 -3 2 -16 -3
-29 -10 l-24 -13 24 -13 c20 -12 569 -14 3479 -17 3352 -2 3456 -2 3490 16 52
28 82 85 77 149 -3 44 -16 71 -90 191 -249 403 -763 1240 -867 1412 -51 85
-172 283 -268 440 -152 247 -370 608 -627 1035 -111 184 -264 434 -600 980
-354 574 -612 998 -833 1370 -157 266 -179 298 -192 290 -5 -3 -10 0 -12 6 -2
5 -22 13 -46 16 l-42 6 1 -524z m102 -2358 c35 -58 142 -234 237 -391 164
-270 216 -357 522 -870 l128 -215 -973 -5 c-534 -3 -973 -4 -975 -4 -6 3 59
125 124 231 81 131 132 216 209 348 59 101 66 112 147 240 24 39 70 115 102
170 31 55 85 145 120 200 103 166 128 207 169 282 56 101 95 147 113 132 8 -6
43 -59 77 -118z m-1783 -1390 c-10 -20 -30 -37 -30 -26 0 11 25 45 33 45 4 0
3 -9 -3 -19z m-170 -151 c0 -5 -9 -10 -20 -10 -11 0 -20 5 -20 10 0 6 9 10 20
10 11 0 20 -4 20 -10z m24 -5 c3 -8 1 -15 -4 -15 -6 0 -10 7 -10 15 0 8 2 15
4 15 2 0 6 -7 10 -15z m44 3 c11 15 11 14 1 -8 -7 -13 -18 -30 -25 -37 -10
-11 -12 -6 -11 23 2 26 4 31 11 20 9 -13 12 -12 24 2z m-98 -48 c0 -11 -4 -20
-9 -20 -5 0 -7 9 -4 20 3 11 7 20 9 20 2 0 4 -9 4 -20z m53 -36 c-2 -6 -13
-10 -24 -7 -23 6 -16 22 10 20 10 0 17 -6 14 -13z m-76 -9 c0 -8 -6 -15 -14
-15 -14 0 -17 12 -6 23 11 11 20 8 20 -8z m-6 -58 c-10 -9 -11 -8 -5 6 3 10 9
15 12 12 3 -3 0 -11 -7 -18z m19 -21 c0 -3 -4 -8 -10 -11 -5 -3 -10 -1 -10 4
0 6 5 11 10 11 6 0 10 -2 10 -4z m-74 -71 c-4 -14 -1 -35 5 -47 10 -18 9 -20
-5 -15 -8 3 -18 1 -22 -5 -5 -7 -2 -8 6 -3 9 5 11 3 6 -6 -3 -8 -9 -22 -12
-31 -8 -22 -24 -24 -24 -3 0 8 4 15 9 15 6 0 9 8 9 18 0 9 3 26 7 36 6 13 5
17 -2 13 -6 -4 -13 -1 -16 5 -7 24 5 48 25 48 17 0 19 -5 14 -25z m32 -10 c-3
-3 -9 2 -12 12 -6 14 -5 15 5 6 7 -7 10 -15 7 -18z m-8 -30 c0 -5 -5 -3 -10 5
-5 8 -10 20 -10 25 0 6 5 3 10 -5 5 -8 10 -19 10 -25z m-76 -10 c3 -8 2 -15
-3 -15 -5 0 -14 7 -21 15 -10 12 -10 15 3 15 8 0 17 -7 21 -15z m-142 -97
c-11 -21 -11 -20 -6 10 3 20 1 32 -5 32 -6 0 -11 -4 -11 -9 0 -13 -28 -22 -35
-11 -3 5 7 16 22 24 26 13 29 13 37 -5 6 -12 5 -27 -2 -41z m135 -20 c-8 -13
-20 -22 -25 -21 -6 1 -14 -11 -17 -28 -5 -22 -10 -28 -18 -20 -7 7 -14 7 -23
0 -8 -7 -14 -7 -19 1 -3 5 0 10 8 10 8 0 20 13 27 30 7 16 17 27 23 23 6 -4 8
0 5 8 -4 11 3 16 24 17 30 2 30 2 15 -20z m-227 -23 c0 -18 4 -23 15 -19 10 4
15 0 15 -11 0 -9 5 -13 11 -10 6 4 5 -3 -3 -14 -11 -18 -11 -23 2 -31 8 -5 10
-10 5 -10 -6 0 -16 5 -23 12 -7 7 -12 8 -12 2 0 -6 5 -15 12 -22 8 -8 9 -12 1
-12 -6 0 -14 6 -16 13 -4 9 -6 9 -6 0 -1 -6 3 -14 8 -17 5 -3 -7 -22 -26 -41
-40 -40 -43 -42 -38 -17 6 28 36 82 46 82 5 0 9 8 9 18 0 10 5 23 11 29 13 13
-34 24 -53 12 -10 -7 -10 -9 0 -9 6 0 12 -10 12 -21 0 -16 -5 -20 -20 -16 -22
6 -26 -3 -10 -19 6 -6 7 -19 3 -30 -6 -17 -8 -17 -15 6 -6 20 -7 17 -4 -11 4
-33 2 -36 -16 -31 -13 3 -26 -1 -34 -12 -8 -11 -18 -15 -26 -10 -7 4 -10 4 -7
0 4 -4 -4 -19 -17 -33 -13 -14 -24 -32 -24 -39 0 -14 -17 -18 -52 -15 -11 2
-18 -4 -18 -14 0 -8 -11 -20 -25 -25 -30 -11 -33 -30 -5 -37 11 -3 20 -10 20
-15 0 -6 -6 -8 -14 -5 -7 3 -19 -4 -26 -17 -6 -13 -21 -29 -33 -37 -11 -8 -31
-24 -43 -36 -11 -13 -26 -23 -33 -23 -18 0 -12 -20 7 -21 15 -1 15 -2 -1 -6
-11 -3 -16 -11 -13 -19 3 -8 -1 -15 -9 -15 -26 -2 -30 -4 -52 -23 -12 -11 -20
-23 -17 -28 3 -4 0 -8 -5 -8 -6 0 -10 -10 -8 -21 1 -12 -4 -24 -11 -26 -7 -3
-10 1 -6 11 3 9 1 16 -5 16 -6 0 -11 -6 -11 -14 0 -17 -31 -30 -40 -16 -4 6
-13 5 -26 -5 -17 -13 -17 -14 -2 -15 9 0 20 -5 24 -12 5 -7 3 -8 -5 -3 -8 4
-30 -5 -56 -24 -24 -17 -50 -31 -59 -31 -8 0 -21 -8 -28 -18 -7 -11 -24 -25
-38 -32 -24 -12 -24 -11 5 21 17 19 35 37 42 42 7 4 19 14 27 22 8 8 20 15 26
15 6 0 8 5 5 10 -3 6 -2 10 3 10 5 0 20 12 34 28 125 134 170 175 180 161 7
-10 7 -7 3 10 -6 21 -4 23 14 18 11 -3 24 -1 27 4 3 5 -2 9 -11 9 -12 0 -6 11
19 37 19 21 39 34 43 29 4 -4 0 -13 -10 -20 -9 -7 -17 -19 -17 -27 1 -8 11 -2
26 15 19 21 22 31 13 37 -9 5 -4 17 19 44 18 19 32 40 32 45 0 5 9 12 20 15
11 3 20 13 20 21 0 8 9 14 20 14 14 0 18 -5 13 -17 -4 -11 -3 -14 6 -9 6 4 9
16 6 26 -4 13 1 23 14 32 12 7 21 18 21 24 0 7 7 14 15 18 8 3 20 17 25 31 8
21 14 25 33 20 18 -6 20 -5 10 6 -19 19 -16 31 7 24 15 -5 21 0 25 18 4 14 18
34 31 46 13 11 24 25 24 31 0 5 5 10 10 10 6 0 10 -11 10 -25z m55 5 c3 -5 -1
-10 -9 -10 -9 0 -16 5 -16 10 0 6 4 10 9 10 6 0 13 -4 16 -10z m93 -95 c-6
-14 -13 -24 -14 -22 -6 6 9 47 17 47 5 0 3 -11 -3 -25z m-34 -17 c1 -7 5 -18
9 -25 4 -6 2 -15 -4 -19 -8 -4 -9 -3 -5 4 4 7 1 12 -9 12 -12 0 -15 5 -11 16
3 9 6 21 6 26 0 15 11 4 14 -14z m-10 -53 c3 -8 1 -15 -4 -15 -6 0 -10 7 -10
15 0 8 2 15 4 15 2 0 6 -7 10 -15z m-22 -19 c7 -37 -6 -50 -21 -22 -13 23 -9
46 8 46 5 0 11 -11 13 -24z m-152 -26 c0 -5 -9 -10 -19 -10 -11 0 -23 5 -26
10 -4 6 5 10 19 10 14 0 26 -4 26 -10z m129 -17 l13 -28 -21 22 c-23 24 -26
33 -13 33 5 0 14 -12 21 -27z m-139 -23 c13 -8 11 -11 -7 -16 -13 -4 -23 -10
-23 -15 0 -4 -9 -13 -20 -19 -16 -9 -20 -8 -20 5 0 8 7 15 15 15 8 0 15 9 15
20 0 22 16 26 40 10z m120 -44 c0 -6 -8 -20 -16 -31 -11 -14 -15 -15 -13 -5 1
8 -1 23 -5 33 -5 9 -5 25 -1 35 6 16 7 16 21 -2 8 -11 14 -25 14 -30z m-220 4
c0 -6 -11 -15 -25 -22 -13 -6 -26 -18 -28 -27 -4 -14 -5 -14 -6 1 0 10 9 26
21 38 24 22 38 26 38 10z m12 -72 c-5 -5 -17 -6 -26 -2 -13 5 -14 9 -5 14 16
11 43 0 31 -12z m168 -8 c-8 -5 -19 -10 -25 -10 -5 0 -3 5 5 10 8 5 11 10 7
10 -5 0 -5 5 -1 11 4 8 9 8 18 -1 8 -8 7 -13 -4 -20z m-52 -2 c11 -14 10 -18
-10 -29 -21 -11 -22 -11 -9 4 8 11 9 17 3 17 -6 0 -9 7 -5 15 3 9 6 15 7 13 1
-2 7 -11 14 -20z m-192 -15 c-10 -10 -19 5 -10 18 6 11 8 11 12 0 2 -7 1 -15
-2 -18z m49 -3 c3 -5 1 -10 -4 -10 -6 0 -11 5 -11 10 0 6 2 10 4 10 3 0 8 -4
11 -10z m-34 -43 c-8 -8 -11 -7 -11 4 0 20 13 34 18 19 3 -7 -1 -17 -7 -23z
m129 11 c0 -6 -6 -5 -15 2 -8 7 -15 14 -15 16 0 2 7 1 15 -2 8 -4 15 -11 15
-16z m-156 -7 c3 -5 -4 -11 -16 -14 -17 -5 -19 -9 -9 -21 9 -10 9 -16 1 -21
-6 -4 -9 -14 -6 -22 4 -9 1 -13 -6 -10 -7 2 -12 14 -11 26 2 15 -1 20 -9 15
-14 -9 -2 14 21 38 18 19 28 22 35 9z m118 2 c-6 -2 -9 -10 -6 -15 4 -7 2 -8
-5 -4 -13 9 -5 26 12 25 9 0 8 -2 -1 -6z m-22 -27 c0 -2 -7 -7 -16 -10 -8 -3
-12 -2 -9 4 6 10 25 14 25 6z m-150 -61 c0 -13 -14 -35 -22 -35 -6 0 -8 7 -5
14 4 10 1 13 -9 9 -9 -3 -13 -12 -9 -21 4 -12 3 -13 -10 -2 -13 11 -12 14 7
30 18 14 48 17 48 5z m-84 -61 c-30 -21 -42 -17 -15 5 13 11 26 17 29 14 3 -2
-4 -11 -14 -19z m-42 -22 c3 -5 -10 -16 -29 -25 -40 -19 -45 -14 -12 14 25 21
33 23 41 11z"/>
<path d="M3071 3974 c0 -11 3 -14 6 -6 3 7 2 16 -1 19 -3 4 -6 -2 -5 -13z"/>
<path d="M2345 3409 c-4 -6 -5 -13 -2 -16 7 -7 27 6 27 18 0 12 -17 12 -25 -2z"/>
<path d="M2886 3667 c3 -10 9 -15 12 -12 3 3 0 11 -7 18 -10 9 -11 8 -5 -6z"/>
<path d="M4716 7185 c-9 -26 -7 -32 5 -12 6 10 9 21 6 23 -2 3 -7 -2 -11 -11z"/>
<path d="M4660 7119 c0 -5 5 -7 10 -4 6 3 10 8 10 11 0 2 -4 4 -10 4 -5 0 -10
-5 -10 -11z"/>
<path d="M4219 6653 c-13 -16 -12 -17 4 -4 9 7 17 15 17 17 0 8 -8 3 -21 -13z"/>
<path d="M4340 6639 c0 -5 5 -7 10 -4 6 3 10 8 10 11 0 2 -4 4 -10 4 -5 0 -10
-5 -10 -11z"/>
<path d="M4230 6529 c0 -5 5 -7 10 -4 6 3 10 8 10 11 0 2 -4 4 -10 4 -5 0 -10
-5 -10 -11z"/>
<path d="M4230 6389 c0 -5 5 -7 10 -4 6 3 10 8 10 11 0 2 -4 4 -10 4 -5 0 -10
-5 -10 -11z"/>
<path d="M4075 6369 c-4 -6 -5 -12 -2 -15 2 -3 7 2 10 11 7 17 1 20 -8 4z"/>
<path d="M4160 6320 c-8 -5 -12 -11 -10 -14 3 -2 14 2 24 10 22 15 10 19 -14
4z"/>
<path d="M3996 6283 c-6 -14 -5 -15 5 -6 7 7 10 15 7 18 -3 3 -9 -2 -12 -12z"/>
<path d="M4057 6217 c-10 -10 -16 -21 -13 -25 8 -8 39 24 35 35 -2 5 -12 0
-22 -10z"/>
<path d="M4010 6161 c-24 -25 -43 -51 -38 -51 11 0 67 60 60 63 -4 3 -14 -3
-22 -12z"/>
<path d="M4386 6164 c-4 -9 -4 -19 -1 -22 2 -3 7 3 11 12 4 9 4 19 1 22 -2 3
-7 -3 -11 -12z"/>
<path d="M4145 6160 c3 -5 8 -10 11 -10 2 0 4 5 4 10 0 6 -5 10 -11 10 -5 0
-7 -4 -4 -10z"/>
<path d="M4356 6113 c-6 -14 -5 -15 5 -6 7 7 10 15 7 18 -3 3 -9 -2 -12 -12z"/>
<path d="M4062 6086 c-11 -15 -24 -26 -30 -26 -10 0 -26 -30 -19 -36 2 -2 21
14 42 36 21 22 36 42 33 45 -3 3 -15 -5 -26 -19z"/>
<path d="M3928 6078 c-27 -33 -22 -41 7 -12 14 14 25 27 25 29 0 12 -17 3 -32
-17z"/>
<path d="M3986 6011 c-4 -7 -5 -15 -2 -18 9 -9 19 4 14 18 -4 11 -6 11 -12 0z"/>
<path d="M3855 6002 c-16 -12 -49 -52 -42 -52 4 0 20 14 37 30 27 27 31 41 5
22z"/>
<path d="M3950 5970 c0 -5 5 -10 10 -10 6 0 10 5 10 10 0 6 -4 10 -10 10 -5 0
-10 -4 -10 -10z"/>
<path d="M3920 5949 c0 -7 -15 -27 -32 -44 -18 -17 -70 -71 -116 -121 -46 -49
-113 -119 -148 -155 -35 -37 -64 -68 -64 -71 0 -2 -36 -41 -80 -87 -44 -46
-78 -86 -76 -89 8 -8 36 19 36 34 0 8 4 14 9 14 12 0 71 58 71 70 0 6 4 10 9
10 11 0 8 -4 136 135 55 59 130 139 168 177 37 38 67 74 67 79 0 5 8 9 17 9 9
0 13 3 10 7 -4 3 -2 12 4 19 7 8 7 14 -1 19 -5 3 -10 1 -10 -6z"/>
<path d="M3779 5927 c-9 -7 -22 -23 -29 -37 -12 -22 -9 -21 20 7 33 33 39 52
9 30z"/>
<path d="M3700 5840 c0 -5 5 -10 10 -10 6 0 10 5 10 10 0 6 -4 10 -10 10 -5 0
-10 -4 -10 -10z"/>
<path d="M4193 5835 c0 -8 4 -12 9 -9 5 3 6 10 3 15 -9 13 -12 11 -12 -6z"/>
<path d="M3902 5778 c-7 -7 -12 -16 -12 -21 0 -5 7 -1 16 8 9 9 14 18 12 20
-2 3 -10 -1 -16 -7z"/>
<path d="M3625 5760 c-3 -5 -1 -10 4 -10 6 0 11 5 11 10 0 6 -2 10 -4 10 -3 0
-8 -4 -11 -10z"/>
<path d="M3596 5735 c-3 -8 -1 -15 4 -15 6 0 10 7 10 15 0 8 -2 15 -4 15 -2 0
-6 -7 -10 -15z"/>
<path d="M3860 5729 c0 -5 5 -7 10 -4 6 3 10 8 10 11 0 2 -4 4 -10 4 -5 0 -10
-5 -10 -11z"/>
<path d="M3825 5700 c-3 -5 -1 -10 4 -10 6 0 11 5 11 10 0 6 -2 10 -4 10 -3 0
-8 -4 -11 -10z"/>
<path d="M3526 5664 c-9 -24 -2 -26 12 -4 7 11 8 20 3 20 -5 0 -12 -7 -15 -16z"/>
<path d="M3780 5649 c0 -5 5 -7 10 -4 6 3 10 8 10 11 0 2 -4 4 -10 4 -5 0 -10
-5 -10 -11z"/>
<path d="M3644 5513 c-61 -65 -133 -143 -160 -173 -27 -30 -51 -57 -54 -60 -3
-3 -30 -34 -60 -69 -30 -35 -79 -89 -108 -120 -69 -72 -99 -113 -78 -105 9 3
16 10 16 14 0 4 51 59 113 123 61 63 135 141 162 174 127 149 164 191 223 250
35 35 62 68 60 73 -2 6 -53 -43 -114 -107z"/>
<path d="M3465 5600 c-3 -5 -1 -10 4 -10 6 0 11 5 11 10 0 6 -2 10 -4 10 -3 0
-8 -4 -11 -10z"/>
<path d="M3436 5565 c-9 -26 -7 -32 5 -12 6 10 9 21 6 23 -2 3 -7 -2 -11 -11z"/>
<path d="M3395 5522 c-5 -4 -17 -16 -25 -27 -11 -15 -7 -14 15 5 17 14 32 26
34 28 2 1 0 2 -5 2 -5 0 -13 -4 -19 -8z"/>
<path d="M3960 5469 c0 -5 5 -7 10 -4 6 3 10 8 10 11 0 2 -4 4 -10 4 -5 0 -10
-5 -10 -11z"/>
<path d="M3259 5373 c-13 -16 -12 -17 4 -4 9 7 17 15 17 17 0 8 -8 3 -21 -13z"/>
<path d="M3663 5383 c-15 -5 -17 -23 -4 -23 5 0 11 7 15 15 3 8 4 15 3 14 -1
0 -8 -3 -14 -6z"/>
<path d="M3367 5352 c-27 -30 -20 -44 8 -16 14 14 25 27 25 29 0 11 -18 4 -33
-13z"/>
<path d="M3615 5330 c-3 -5 -2 -10 4 -10 5 0 13 5 16 10 3 6 2 10 -4 10 -5 0
-13 -4 -16 -10z"/>
<path d="M3468 5178 c-70 -73 -136 -145 -148 -160 -11 -14 -44 -52 -74 -83
-30 -30 -96 -101 -148 -156 -51 -55 -178 -184 -281 -287 -180 -179 -219 -222
-199 -222 11 0 262 251 262 262 0 4 7 8 15 8 8 0 15 3 15 8 0 4 65 74 145 155
80 82 145 153 145 157 0 5 9 12 20 15 11 3 20 10 20 15 0 13 46 60 59 60 6 0
10 4 9 8 -2 5 26 42 62 82 36 40 87 99 114 129 27 31 64 71 83 89 19 18 33 38
31 44 -2 5 -61 -50 -130 -124z"/>
<path d="M3154 5258 l-19 -23 23 19 c21 18 27 26 19 26 -2 0 -12 -10 -23 -22z"/>
<path d="M3288 5264 c-7 -9 -32 -36 -55 -61 -24 -24 -43 -49 -43 -54 0 -5 22
15 49 43 75 79 82 88 71 88 -5 0 -15 -7 -22 -16z"/>
<path d="M3642 5208 c-18 -16 -31 -32 -29 -35 3 -2 19 10 37 27 42 41 34 48
-8 8z"/>
<path d="M3101 5201 c-7 -5 -11 -15 -9 -22 3 -10 8 -7 17 9 13 24 12 26 -8 13z"/>
<path d="M3796 5187 c3 -10 9 -15 12 -12 3 3 0 11 -7 18 -10 9 -11 8 -5 -6z"/>
<path d="M3042 5135 c-12 -14 -18 -25 -13 -25 11 0 45 39 39 45 -2 3 -14 -6
-26 -20z"/>
<path d="M3563 5134 c-34 -36 -28 -50 7 -17 29 27 38 44 23 42 -5 -1 -18 -12
-30 -25z"/>
<path d="M3135 5097 c-5 -7 -19 -23 -29 -35 -11 -12 -17 -22 -14 -22 7 0 68
59 68 65 0 9 -15 4 -25 -8z"/>
<path d="M3690 5085 c-7 -9 -8 -15 -2 -15 5 0 12 7 16 15 3 8 4 15 2 15 -2 0
-9 -7 -16 -15z"/>
<path d="M2780 5061 c-7 -15 -7 -22 2 -27 7 -4 10 -4 6 1 -4 4 -3 16 3 26 5
11 7 19 5 19 -3 0 -10 -9 -16 -19z"/>
<path d="M2855 5060 c-3 -5 -1 -10 4 -10 6 0 11 5 11 10 0 6 -2 10 -4 10 -3 0
-8 -4 -11 -10z"/>
<path d="M3496 5054 c-18 -17 -20 -24 -8 -24 4 0 13 9 20 20 15 24 9 26 -12 4z"/>
<path d="M3717 5063 c-4 -3 -7 -11 -7 -17 0 -6 5 -5 12 2 6 6 9 14 7 17 -3 3
-9 2 -12 -2z"/>
<path d="M3684 5014 c1 -29 12 -32 19 -5 3 11 -1 22 -8 25 -8 3 -12 -4 -11
-20z"/>
<path d="M3070 5020 c-9 -6 -10 -10 -3 -10 6 0 15 5 18 10 8 12 4 12 -15 0z"/>
<path d="M3035 4989 c-4 -6 -5 -12 -2 -15 2 -3 7 2 10 11 7 17 1 20 -8 4z"/>
<path d="M3424 4981 c-85 -84 -144 -147 -144 -153 0 -5 -7 -8 -15 -8 -8 0 -15
-5 -15 -11 0 -12 -39 -57 -84 -98 -17 -14 -134 -131 -260 -259 -994 -1002
-1207 -1211 -1228 -1205 -4 2 -4 -5 -1 -14 5 -12 3 -14 -7 -8 -10 6 -12 4 -7
-9 4 -9 3 -15 -2 -11 -5 3 -18 -7 -29 -22 -27 -40 -33 -60 -16 -60 7 0 11 4 8
9 -3 4 4 20 15 34 17 22 21 23 21 9 0 -12 11 -3 31 25 17 23 131 140 252 259
121 119 251 245 287 281 37 36 96 92 131 126 35 34 146 146 246 250 165 171
374 383 652 659 56 55 101 105 101 110 0 12 58 75 69 75 9 0 24 30 18 36 -2 2
-12 -5 -23 -15z"/>
<path d="M2726 4973 c-6 -14 -5 -15 5 -6 7 7 10 15 7 18 -3 3 -9 -2 -12 -12z"/>
<path d="M3555 4960 c-7 -23 1 -40 20 -40 8 0 12 8 10 20 -2 13 2 20 11 20 8
0 12 5 9 10 -11 17 -43 11 -50 -10z"/>
<path d="M2997 4949 c-10 -11 -16 -24 -13 -27 6 -6 35 27 36 41 0 11 -4 9 -23
-14z"/>
<path d="M3106 4924 c-18 -26 -18 -26 3 -15 11 7 21 18 21 26 0 20 -2 19 -24
-11z"/>
<path d="M2931 4880 c-19 -17 -31 -34 -27 -37 6 -6 66 52 66 63 0 7 -5 4 -39
-26z"/>
<path d="M3590 4897 c0 -7 6 -21 13 -31 12 -17 14 -17 20 -3 4 10 2 16 -6 14
-7 -1 -11 6 -9 16 2 9 -2 17 -8 17 -5 0 -10 -6 -10 -13z"/>
<path d="M3036 4843 c-6 -14 -5 -15 5 -6 7 7 10 15 7 18 -3 3 -9 -2 -12 -12z"/>
<path d="M2640 4830 c-6 -11 -8 -20 -6 -20 3 0 10 9 16 20 6 11 8 20 6 20 -3
0 -10 -9 -16 -20z"/>
<path d="M3351 4834 c0 -11 3 -14 6 -6 3 7 2 16 -1 19 -3 4 -6 -2 -5 -13z"/>
<path d="M2851 4800 c-19 -17 -31 -33 -28 -36 5 -5 67 53 67 62 0 7 -5 4 -39
-26z"/>
<path d="M2974 4785 c-15 -13 -26 -27 -23 -29 3 -3 18 8 34 24 35 36 29 39
-11 5z"/>
<path d="M3347 4765 c-4 -8 -2 -17 2 -20 5 -2 11 4 14 15 6 23 -8 27 -16 5z"/>
<path d="M2906 4719 c-18 -18 -24 -29 -15 -29 13 1 55 48 47 55 -1 2 -16 -10
-32 -26z"/>
<path d="M2717 4663 c-31 -31 -54 -59 -51 -62 3 -3 30 21 60 53 30 32 53 60
51 62 -2 2 -29 -22 -60 -53z"/>
<path d="M3450 4692 c0 -12 -3 -21 -7 -19 -5 1 -9 -2 -11 -8 -2 -5 1 -11 7
-13 11 -4 27 45 17 55 -3 4 -6 -3 -6 -15z"/>
<path d="M2862 4668 c-7 -7 -12 -16 -12 -21 0 -5 7 -1 16 8 9 9 14 18 12 20
-2 3 -10 -1 -16 -7z"/>
<path d="M3382 4634 c3 -14 19 -22 17 -8 0 4 5 11 13 15 9 6 6 9 -10 9 -16 0
-22 -5 -20 -16z"/>
<path d="M2753 4563 c-40 -42 -71 -78 -69 -81 4 -3 20 13 125 122 19 20 31 36
25 36 -5 -1 -42 -35 -81 -77z"/>
<path d="M2635 4579 c-4 -6 -5 -12 -2 -15 2 -3 7 2 10 11 7 17 1 20 -8 4z"/>
<path d="M3140 4544 c0 -8 5 -12 10 -9 6 3 10 10 10 16 0 5 -4 9 -10 9 -5 0
-10 -7 -10 -16z"/>
<path d="M2585 4529 c-11 -17 1 -21 15 -4 8 9 8 15 2 15 -6 0 -14 -5 -17 -11z"/>
<path d="M3092 4498 c-19 -19 -14 -29 8 -16 20 13 27 28 12 28 -4 0 -13 -5
-20 -12z"/>
<path d="M3375 4479 c-4 -6 -5 -12 -2 -15 2 -3 7 2 10 11 7 17 1 20 -8 4z"/>
<path d="M2624 4435 c-22 -25 -37 -45 -33 -45 10 0 79 72 79 83 0 11 -3 9 -46
-38z"/>
<path d="M3035 4442 c-5 -4 -19 -18 -30 -31 l-20 -24 22 12 c13 6 27 20 33 31
12 22 11 24 -5 12z"/>
<path d="M2455 4400 c-3 -5 -1 -10 4 -10 6 0 11 5 11 10 0 6 -2 10 -4 10 -3 0
-8 -4 -11 -10z"/>
<path d="M2560 4369 c0 -5 5 -7 10 -4 6 3 10 8 10 11 0 2 -4 4 -10 4 -5 0 -10
-5 -10 -11z"/>
<path d="M2872 4281 c-84 -87 -296 -300 -935 -937 -277 -276 -331 -333 -324
-341 4 -3 18 9 33 26 27 33 93 96 179 172 27 24 59 55 70 69 11 13 105 108
209 210 378 371 776 776 776 789 0 3 16 17 35 31 19 14 37 33 40 43 4 9 11 17
16 17 5 0 9 5 9 10 0 19 -16 6 -108 -89z"/>
<path d="M3087 4351 c-30 -34 -25 -40 12 -12 13 10 22 24 20 30 -3 8 -15 0
-32 -18z"/>
<path d="M2377 4328 c-10 -11 -17 -22 -15 -24 3 -2 15 7 28 21 13 14 19 25 14
24 -5 0 -17 -10 -27 -21z"/>
<path d="M2530 4335 c-7 -9 -8 -15 -2 -15 5 0 12 7 16 15 3 8 4 15 2 15 -2 0
-9 -7 -16 -15z"/>
<path d="M2480 4289 c0 -5 5 -7 10 -4 6 3 10 8 10 11 0 2 -4 4 -10 4 -5 0 -10
-5 -10 -11z"/>
<path d="M3020 4285 c-7 -9 -11 -18 -8 -20 3 -3 11 1 18 10 7 9 11 18 8 20 -3
3 -11 -1 -18 -10z"/>
<path d="M2450 4122 c-145 -147 -165 -170 -157 -179 7 -7 147 132 147 146 0 6
4 11 8 11 13 0 72 56 72 68 0 7 4 12 9 12 12 0 71 59 71 71 0 21 -21 3 -150
-129z"/>
<path d="M2260 4179 c0 -5 -6 -7 -12 -3 -7 4 -9 3 -5 -1 13 -15 36 -14 30 1
-6 17 -13 18 -13 3z"/>
<path d="M2185 4089 c-4 -6 -5 -12 -2 -15 2 -3 7 2 10 11 7 17 1 20 -8 4z"/>
<path d="M2246 3921 c-10 -11 -13 -22 -8 -25 5 -3 17 3 26 13 10 11 13 22 8
25 -5 3 -17 -3 -26 -13z"/>
<path d="M2163 3832 c-53 -58 -46 -71 7 -14 22 23 47 42 55 42 8 0 15 5 15 10
0 24 -38 5 -77 -38z"/>
<path d="M2065 3740 c3 -5 8 -10 11 -10 2 0 4 5 4 10 0 6 -5 10 -11 10 -5 0
-7 -4 -4 -10z"/>
<path d="M2020 3690 c0 -5 -7 -10 -15 -10 -8 0 -15 -4 -15 -9 0 -14 38 -1 44
15 3 8 1 14 -4 14 -6 0 -10 -4 -10 -10z"/>
<path d="M2500 3665 c-7 -9 -8 -15 -2 -15 5 0 12 7 16 15 3 8 4 15 2 15 -2 0
-9 -7 -16 -15z"/>
<path d="M1975 3630 c-3 -5 -1 -10 4 -10 6 0 11 5 11 10 0 6 -2 10 -4 10 -3 0
-8 -4 -11 -10z"/>
<path d="M1910 3577 c-9 -21 -15 -25 -21 -16 -4 7 -5 17 -2 23 3 5 1 6 -5 2
-9 -5 -9 -13 -1 -29 l12 -21 19 24 c11 13 27 29 36 36 15 12 15 13 -4 11 -13
0 -26 -12 -34 -30z"/>
<path d="M1756 3383 c-6 -14 -5 -15 5 -6 7 7 10 15 7 18 -3 3 -9 -2 -12 -12z"/>
<path d="M5111 1824 c-1 -10 28 -42 30 -33 7 37 7 40 -6 29 -10 -8 -14 -7 -18
2 -3 8 -6 8 -6 2z"/>
<path d="M5373 1815 c0 -8 4 -12 9 -9 4 3 8 9 8 15 0 5 -4 9 -8 9 -5 0 -9 -7
-9 -15z"/>
<path d="M5289 1803 c-1 -5 -1 -11 -1 -14 1 -4 -9 -18 -21 -32 -25 -27 -32
-47 -17 -47 6 0 10 6 10 14 0 9 8 12 25 8 15 -2 25 0 25 7 0 7 -4 10 -9 6 -13
-7 -26 16 -14 24 6 3 10 14 10 24 0 17 -6 24 -8 10z"/>
<path d="M4571 1784 c0 -11 3 -14 6 -6 3 7 2 16 -1 19 -3 4 -6 -2 -5 -13z"/>
<path d="M4825 1790 c-3 -6 1 -7 9 -4 18 7 21 14 7 14 -6 0 -13 -4 -16 -10z"/>
<path d="M4946 1783 c-6 -14 -5 -15 5 -6 7 7 10 15 7 18 -3 3 -9 -2 -12 -12z"/>
<path d="M5153 1780 c-3 -11 -10 -20 -15 -20 -5 0 -6 5 -3 10 3 6 1 10 -4 10
-16 0 -14 -8 19 -61 16 -27 26 -49 20 -49 -5 0 -12 5 -15 11 -4 6 -13 8 -20 5
-20 -7 -25 4 -14 28 10 20 9 20 -5 3 -8 -11 -12 -26 -9 -35 5 -11 2 -14 -10
-9 -9 3 -19 1 -23 -5 -4 -6 -3 -8 4 -4 6 3 13 2 17 -4 3 -5 11 -10 16 -10 6 0
7 5 4 10 -4 6 5 10 19 10 14 0 26 -5 26 -11 0 -5 -3 -8 -8 -5 -4 2 -16 -2 -27
-10 -10 -8 -14 -14 -8 -14 7 0 15 5 18 10 4 6 11 8 16 4 5 -3 7 -9 5 -13 -3
-4 5 -8 16 -8 11 -1 29 -10 39 -19 12 -11 19 -13 19 -5 0 7 5 9 12 5 7 -4 8
-3 4 5 -4 6 -12 9 -17 6 -12 -8 -40 20 -31 31 4 5 0 3 -10 -4 -23 -18 -31 1
-8 21 18 15 19 15 25 -3 3 -10 13 -21 21 -24 9 -4 12 -2 8 5 -4 7 -1 10 7 7 8
-3 14 -10 14 -16 0 -6 6 -17 13 -23 9 -10 12 -10 12 -1 0 7 -6 12 -12 12 -9 0
-8 4 2 10 8 5 10 10 4 10 -7 0 -14 10 -18 22 -4 18 -8 20 -18 10 -16 -16 -31
-16 -21 1 4 6 8 21 10 32 1 11 -1 14 -3 7 -3 -6 -10 -10 -15 -6 -5 3 -12 -2
-15 -10 -3 -9 -10 -13 -15 -10 -15 9 -10 20 14 33 l22 11 -24 -6 c-20 -5 -23
-3 -18 10 6 14 3 16 -16 11 -19 -5 -20 -4 -7 7 8 7 16 21 16 31 2 23 -7 22
-13 -3z m62 -90 c3 -5 1 -10 -4 -10 -6 0 -11 5 -11 10 0 6 2 10 4 10 3 0 8 -4
11 -10z"/>
<path d="M5497 1780 c-10 -10 -20 -33 -23 -52 -4 -33 -4 -33 10 -9 7 14 11 32
8 40 -3 8 -1 12 5 8 6 -4 14 0 17 9 9 23 4 24 -17 4z"/>
<path d="M4895 1780 c3 -5 11 -10 16 -10 6 0 7 5 4 10 -3 6 -11 10 -16 10 -6
0 -7 -4 -4 -10z"/>
<path d="M5225 1780 c-3 -5 -3 -14 0 -20 3 -5 0 -10 -9 -10 -8 0 -17 6 -19 13
-3 7 -6 4 -6 -6 -1 -29 42 -18 44 11 2 24 -1 27 -10 12z"/>
<path d="M5401 1777 c-14 -6 -26 -19 -28 -27 -4 -13 -3 -13 6 0 7 10 11 11 11
3 0 -7 5 -13 12 -13 9 0 9 3 0 12 -9 9 -6 15 16 24 15 7 23 13 17 13 -5 0 -21
-5 -34 -12z"/>
<path d="M5745 1781 c-3 -5 -2 -12 3 -15 5 -3 9 1 9 9 0 17 -3 19 -12 6z"/>
<path d="M4746 1772 c-3 -5 1 -9 9 -9 8 0 12 4 9 9 -3 4 -7 8 -9 8 -2 0 -6 -4
-9 -8z"/>
<path d="M5044 1758 c-13 -16 -14 -19 -2 -10 11 9 18 10 23 2 3 -5 1 -10 -6
-10 -8 0 -5 -5 5 -13 17 -13 17 -14 0 -28 -16 -13 -17 -12 -11 4 4 10 3 16 -2
12 -12 -7 -42 5 -36 15 2 4 -2 16 -10 26 -13 17 -14 16 -6 -13 5 -17 7 -34 3
-37 -3 -3 0 -7 6 -7 21 -2 27 -4 37 -11 16 -10 48 19 41 38 -4 12 -2 15 9 10
9 -3 15 0 15 9 0 9 -8 14 -22 12 -14 -1 -22 3 -20 11 3 17 -2 15 -24 -10z"/>
<path d="M5434 1765 c-18 -14 -18 -14 4 -8 12 3 22 9 22 14 0 12 -3 11 -26 -6z"/>
<path d="M4687 1760 c7 -8 20 -15 29 -16 9 -1 13 1 9 4 -4 4 -10 7 -13 7 -4 0
-14 4 -22 9 -12 7 -13 6 -3 -4z"/>
<path d="M4964 1759 c-3 -6 -1 -16 5 -22 23 -23 10 -29 -15 -6 -17 16 -23 18
-19 7 4 -9 13 -19 21 -22 12 -5 12 -9 2 -25 -7 -11 -16 -17 -22 -14 -5 3 -6 1
-2 -6 10 -15 31 -9 31 10 1 8 5 13 11 12 12 -2 16 35 4 42 -5 3 -7 12 -3 20 6
17 -3 20 -13 4z"/>
<path d="M5320 1758 c16 -14 15 -53 -1 -43 -5 3 -6 -1 -3 -9 8 -20 0 -20 -20
-1 -13 14 -16 13 -27 -6 -10 -20 -9 -21 17 -15 27 7 28 7 11 -11 -15 -17 -15
-21 -2 -40 13 -18 13 -22 0 -33 -8 -7 -15 -17 -15 -23 0 -6 8 0 17 13 10 14
18 29 18 33 0 4 7 12 15 17 9 6 10 10 3 10 -6 0 -15 -5 -19 -11 -5 -8 -9 -7
-14 1 -5 8 0 21 11 33 10 12 19 25 19 30 0 5 7 4 15 -3 8 -7 15 -9 15 -4 0 5
7 0 15 -10 13 -17 15 -17 15 -3 0 18 31 39 52 34 7 -2 9 -2 5 1 -4 2 -2 11 5
20 11 15 11 15 -3 5 -9 -7 -19 -10 -22 -6 -4 3 -7 2 -7 -4 0 -6 -8 -10 -17 -9
-10 0 -17 -4 -16 -11 4 -17 -35 -12 -42 6 -3 8 -1 17 5 21 6 4 -2 12 -17 18
-23 10 -25 10 -13 0z"/>
<path d="M5575 1753 c16 -15 15 -18 -7 -34 -12 -10 -27 -19 -32 -19 -5 0 -7
-3 -3 -6 3 -3 20 4 36 16 26 18 29 25 21 41 -6 10 -15 19 -21 19 -6 0 -3 -8 6
-17z"/>
<path d="M5683 1755 c0 -8 4 -12 9 -9 4 3 8 9 8 15 0 5 -4 9 -8 9 -5 0 -9 -7
-9 -15z"/>
<path d="M4404 1749 c-3 -6 -1 -16 6 -22 10 -9 11 -9 5 2 -4 8 -2 17 6 22 9 6
10 9 2 9 -6 0 -15 -5 -19 -11z"/>
<path d="M4624 1753 c3 -6 -2 -16 -11 -22 -10 -6 -13 -10 -8 -11 6 0 17 5 25
10 13 8 13 11 1 22 -9 8 -12 9 -7 1z"/>
<path d="M5605 1750 c4 -6 11 -7 17 -4 8 5 9 1 4 -11 -5 -15 -4 -16 9 -5 13
11 13 15 3 21 -18 12 -40 11 -33 -1z"/>
<path d="M5825 1750 c-3 -5 -1 -10 4 -10 6 0 11 5 11 10 0 6 -2 10 -4 10 -3 0
-8 -4 -11 -10z"/>
<path d="M4655 1740 c-3 -5 -1 -10 4 -10 6 0 11 5 11 10 0 6 -2 10 -4 10 -3 0
-8 -4 -11 -10z"/>
<path d="M5725 1740 c-3 -5 -2 -18 4 -28 6 -11 6 -24 0 -35 -8 -13 -6 -15 5
-11 14 6 15 22 0 58 -6 15 -4 17 6 11 9 -5 11 -4 6 3 -9 15 -13 15 -21 2z"/>
<path d="M5767 1743 c-4 -3 -7 -13 -7 -22 1 -13 3 -13 11 2 11 19 8 33 -4 20z"/>
<path d="M5860 1743 c0 -6 8 -17 18 -24 16 -13 16 -13 2 6 -8 11 -16 22 -17
24 -2 2 -3 0 -3 -6z"/>
<path d="M4672 1724 c-7 -8 -8 -14 -3 -14 10 0 25 19 20 25 -2 1 -10 -3 -17
-11z"/>
<path d="M4720 1723 c-14 -7 -18 -13 -10 -13 17 0 47 17 40 23 -3 2 -16 -2
-30 -10z"/>
<path d="M4774 1725 c-11 -8 -14 -15 -8 -15 5 0 15 5 22 12 15 15 15 3 1 -24
-9 -16 -8 -19 3 -16 7 3 13 10 13 16 0 13 9 16 28 9 8 -3 4 -11 -10 -22 -13
-9 -23 -21 -23 -26 0 -5 14 4 30 21 17 17 30 34 30 37 0 3 -3 4 -6 0 -4 -3
-19 0 -34 8 -24 12 -30 12 -46 0z"/>
<path d="M4884 1715 c-12 -13 -19 -26 -17 -29 7 -7 33 20 33 32 0 6 6 13 13
15 6 3 8 6 2 6 -5 0 -20 -10 -31 -24z"/>
<path d="M4556 1721 c-4 -5 -2 -12 3 -15 5 -4 12 -2 15 3 4 5 2 12 -3 15 -5 4
-12 2 -15 -3z"/>
<path d="M5650 1726 c0 -2 7 -7 16 -10 8 -3 12 -2 9 4 -6 10 -25 14 -25 6z"/>
<path d="M5800 1720 c-9 -6 -10 -10 -3 -10 6 0 15 5 18 10 8 12 4 12 -15 0z"/>
<path d="M4507 1700 c-9 -11 -13 -20 -7 -20 5 0 14 9 20 20 6 11 9 20 8 20 -2
0 -11 -9 -21 -20z"/>
<path d="M4914 1701 c0 -11 5 -17 13 -14 10 4 11 9 2 19 -15 18 -15 18 -15 -5z"/>
<path d="M5902 1708 c-7 -7 -12 -17 -12 -22 0 -6 5 -3 11 7 6 9 15 14 21 11 7
-4 8 -2 4 4 -9 15 -9 15 -24 0z"/>
<path d="M4329 1693 c-13 -16 -12 -17 4 -4 9 7 17 15 17 17 0 8 -8 3 -21 -13z"/>
<path d="M4366 1701 c-3 -5 7 -16 22 -25 l27 -17 -22 19 c-12 11 -19 22 -16
26 4 3 4 6 0 6 -3 0 -8 -4 -11 -9z"/>
<path d="M4730 1695 c-7 -9 -11 -17 -9 -20 3 -2 10 5 17 15 14 24 10 26 -8 5z"/>
<path d="M5582 1690 c-15 -24 -15 -40 -1 -40 6 0 8 7 5 15 -3 9 1 18 9 21 8 4
15 10 15 15 0 16 -15 10 -28 -11z"/>
<path d="M5650 1701 c0 -6 4 -13 10 -16 6 -3 7 1 4 9 -7 18 -14 21 -14 7z"/>
<path d="M4692 1695 c4 -4 0 -13 -9 -20 -13 -9 -13 -14 -3 -20 9 -5 11 -4 6 3
-4 7 -1 12 8 12 19 0 21 16 4 26 -7 4 -10 4 -6 -1z"/>
<path d="M5431 1677 c-13 -21 -12 -21 5 -5 10 10 16 20 13 22 -3 3 -11 -5 -18
-17z"/>
<path d="M5765 1689 c-4 -6 -5 -12 -2 -15 2 -3 7 2 10 11 7 17 1 20 -8 4z"/>
<path d="M4750 1675 c-10 -12 -10 -15 0 -15 7 0 10 -7 6 -16 -3 -8 -2 -13 3
-10 7 5 13 56 6 56 -1 0 -8 -7 -15 -15z"/>
<path d="M4990 1680 c-8 -5 -12 -12 -9 -15 4 -3 12 1 19 10 14 17 11 19 -10 5z"/>
<path d="M5489 1676 l24 -14 -23 -7 c-12 -4 -25 -3 -29 3 -4 6 -11 5 -18 -4
-8 -8 -9 -15 -3 -19 6 -3 10 -2 10 4 0 6 6 8 14 5 8 -3 23 -1 33 4 11 7 24 7
35 1 14 -8 16 -6 11 7 -5 13 -3 15 7 9 9 -5 11 -4 6 4 -5 8 -12 9 -19 2 -8 -6
-19 -5 -31 5 -11 8 -25 14 -30 14 -6 -1 0 -7 13 -14z"/>
<path d="M4614 1658 c0 -10 1 -18 3 -18 1 0 7 8 12 18 7 13 6 19 -2 19 -7 0
-13 -9 -13 -19z"/>
<path d="M5335 1670 c-3 -6 1 -7 9 -4 9 3 16 1 16 -5 0 -6 5 -11 11 -11 8 0 8
5 -1 15 -14 17 -26 19 -35 5z"/>
<path d="M4583 1649 c-2 -23 3 -25 10 -4 4 8 3 16 -1 19 -4 3 -9 -4 -9 -15z"/>
<path d="M4870 1663 c0 -19 14 -22 35 -7 10 8 14 14 8 14 -7 0 -15 -5 -19 -11
-4 -8 -9 -7 -15 2 -6 10 -9 10 -9 2z"/>
<path d="M5007 1656 c-5 -14 -2 -17 15 -14 22 3 38 28 18 28 -6 0 -8 -4 -5
-10 3 -5 2 -10 -4 -10 -5 0 -11 5 -13 12 -3 7 -7 5 -11 -6z"/>
<path d="M5900 1660 c0 -5 5 -10 11 -10 5 0 7 5 4 10 -3 6 -8 10 -11 10 -2 0
-4 -4 -4 -10z"/>
<path d="M4650 1656 c0 -2 8 -10 18 -17 15 -13 16 -12 3 4 -13 16 -21 21 -21
13z"/>
<path d="M4824 1652 c3 -6 -2 -15 -11 -21 -16 -9 -16 -10 -2 -11 20 0 33 27
17 36 -6 4 -8 3 -4 -4z"/>
<path d="M4701 1634 c0 -11 3 -14 6 -6 3 7 2 16 -1 19 -3 4 -6 -2 -5 -13z"/>
<path d="M4955 1640 c-3 -5 -1 -10 4 -10 6 0 11 5 11 10 0 6 -2 10 -4 10 -3 0
-8 -4 -11 -10z"/>
<path d="M5613 1635 c0 -8 4 -12 9 -9 5 3 6 10 3 15 -9 13 -12 11 -12 -6z"/>
<path d="M4891 1627 c-8 -10 -7 -14 2 -14 8 0 14 6 14 14 0 7 -1 13 -2 13 -2
0 -8 -6 -14 -13z"/>
<path d="M5496 1632 c-3 -5 1 -9 9 -9 8 0 12 4 9 9 -3 4 -7 8 -9 8 -2 0 -6 -4
-9 -8z"/>
<path d="M5036 1614 c-3 -8 -11 -12 -17 -8 -8 5 -9 3 -5 -5 5 -7 11 -10 14 -7
3 3 12 0 21 -6 13 -10 14 -10 4 1 -6 7 -9 20 -6 27 3 8 3 14 0 14 -3 0 -8 -7
-11 -16z"/>
<path d="M5530 1621 c0 -6 4 -13 10 -16 6 -3 7 1 4 9 -7 18 -14 21 -14 7z"/>
<path d="M4975 1610 c3 -5 8 -10 11 -10 2 0 4 5 4 10 0 6 -5 10 -11 10 -5 0
-7 -4 -4 -10z"/>
<path d="M5079 1603 c-12 -16 -12 -17 2 -6 9 7 19 10 22 6 4 -3 7 -1 7 5 0 17
-16 15 -31 -5z"/>
<path d="M5169 1593 c-13 -16 -12 -17 4 -4 16 13 21 21 13 21 -2 0 -10 -8 -17
-17z"/>
</g>
</svg>
